<mxfile host="65bd71144e">
    <diagram id="GuMaK6SoEd6X0b6FjhhY" name="Page-1">
        <mxGraphModel dx="1855" dy="846" grid="1" gridSize="10" guides="1" tooltips="1" connect="1" arrows="1" fold="1" page="1" pageScale="1" pageWidth="850" pageHeight="1100" math="0" shadow="0">
            <root>
                <mxCell id="0"/>
                <mxCell id="1" parent="0"/>
                <mxCell id="2" value="&lt;font color=&quot;#121212&quot; style=&quot;font-size: 27px&quot;&gt;Users&lt;br&gt;:email&lt;br&gt;:password_digest&lt;br&gt;:organization&lt;br&gt;:manager:boolean&lt;br&gt;&lt;/font&gt;" style="whiteSpace=wrap;html=1;fillColor=#f5f5f5;gradientColor=#b3b3b3;strokeColor=#666666;" vertex="1" parent="1">
                    <mxGeometry x="80" width="260" height="190" as="geometry"/>
                </mxCell>
                <mxCell id="4" value="&lt;font color=&quot;#121212&quot; style=&quot;font-size: 21px&quot;&gt;Tasks&lt;br&gt;:title&lt;br&gt;:description:text&lt;br&gt;:user_id&lt;br&gt;:project_id&lt;br&gt;:priority&lt;br&gt;:column:integer&lt;br&gt;&lt;/font&gt;" style="whiteSpace=wrap;html=1;fillColor=#f5f5f5;gradientColor=#b3b3b3;strokeColor=#666666;" vertex="1" parent="1">
                    <mxGeometry x="300" y="272" width="260" height="190" as="geometry"/>
                </mxCell>
                <mxCell id="5" value="&lt;font color=&quot;#121212&quot; style=&quot;font-size: 27px&quot;&gt;Projects&lt;br&gt;:title&lt;br&gt;:description:text&lt;br&gt;&lt;/font&gt;" style="whiteSpace=wrap;html=1;fillColor=#f5f5f5;gradientColor=#b3b3b3;strokeColor=#666666;" vertex="1" parent="1">
                    <mxGeometry x="540" width="260" height="190" as="geometry"/>
                </mxCell>
                <mxCell id="6" value="" style="shape=flexArrow;endArrow=classic;startArrow=classic;html=1;fontSize=27;fontColor=#121212;entryX=0.5;entryY=1;entryDx=0;entryDy=0;exitX=0;exitY=0.25;exitDx=0;exitDy=0;" edge="1" parent="1" target="2">
                    <mxGeometry width="100" height="100" relative="1" as="geometry">
                        <mxPoint x="300" y="307.5" as="sourcePoint"/>
                        <mxPoint x="350" y="180" as="targetPoint"/>
                    </mxGeometry>
                </mxCell>
                <mxCell id="7" value="" style="shape=flexArrow;endArrow=classic;startArrow=classic;html=1;fontSize=27;fontColor=#121212;exitX=1;exitY=0.25;exitDx=0;exitDy=0;" edge="1" parent="1">
                    <mxGeometry width="100" height="100" relative="1" as="geometry">
                        <mxPoint x="560" y="307.5" as="sourcePoint"/>
                        <mxPoint x="660" y="190" as="targetPoint"/>
                    </mxGeometry>
                </mxCell>
                <mxCell id="9" value="&lt;font color=&quot;#ffffff&quot;&gt;Front end routes:&lt;br&gt;Home (login, signup, profile(if logged in))&lt;br&gt;Manager Logged in - All projects&amp;nbsp;&amp;nbsp;&lt;br&gt;Manager Logged in - All tasks (assignable) - Filter tasks based on user&lt;br&gt;User Logged in - Just see their tasks and projects&lt;br&gt;&lt;/font&gt;" style="rounded=1;whiteSpace=wrap;html=1;fontSize=21;fontColor=#121212;" vertex="1" parent="1">
                    <mxGeometry x="20" y="470" width="810" height="230" as="geometry"/>
                </mxCell>
                <mxCell id="10" value="Assigned" style="rounded=1;whiteSpace=wrap;html=1;fontSize=21;fontColor=#FFFFFF;" vertex="1" parent="1">
                    <mxGeometry x="20" y="740" width="250" height="320" as="geometry"/>
                </mxCell>
                <mxCell id="11" value="In Process" style="rounded=1;whiteSpace=wrap;html=1;fontSize=21;fontColor=#FFFFFF;" vertex="1" parent="1">
                    <mxGeometry x="300" y="740" width="250" height="320" as="geometry"/>
                </mxCell>
                <mxCell id="12" value="Completed" style="rounded=1;whiteSpace=wrap;html=1;fontSize=21;fontColor=#FFFFFF;" vertex="1" parent="1">
                    <mxGeometry x="580" y="740" width="250" height="320" as="geometry"/>
                </mxCell>
                <mxCell id="13" value="User - Tasks" style="rounded=1;whiteSpace=wrap;html=1;fontSize=21;fontColor=#FFFFFF;" vertex="1" parent="1">
                    <mxGeometry x="360" y="700" width="120" height="40" as="geometry"/>
                </mxCell>
                <mxCell id="14" value="&lt;font style=&quot;font-size: 14px&quot;&gt;Title&lt;br&gt;Description&lt;br&gt;Project&amp;nbsp;&lt;br&gt;&lt;/font&gt;" style="rounded=1;whiteSpace=wrap;html=1;fontSize=21;fontColor=#FFFFFF;" vertex="1" parent="1">
                    <mxGeometry x="40" y="760" width="210" height="80" as="geometry"/>
                </mxCell>
                <mxCell id="15" value="Manager - Dashboard" style="rounded=1;whiteSpace=wrap;html=1;fontSize=21;fontColor=#FFFFFF;" vertex="1" parent="1">
                    <mxGeometry x="317.5" y="1070" width="225" height="40" as="geometry"/>
                </mxCell>
                <mxCell id="16" value="Form&lt;br&gt;&lt;br&gt;Title&lt;br&gt;Description" style="rounded=1;whiteSpace=wrap;html=1;fontSize=14;fontColor=#FFFFFF;" vertex="1" parent="1">
                    <mxGeometry x="640" y="1170" width="160" height="120" as="geometry"/>
                </mxCell>
                <mxCell id="17" value="List of Projects/List of Users" style="rounded=1;whiteSpace=wrap;html=1;fontSize=14;fontColor=#FFFFFF;" vertex="1" parent="1">
                    <mxGeometry x="270" y="1150" width="320" height="260" as="geometry"/>
                </mxCell>
                <mxCell id="18" value="Unassigned" style="rounded=1;whiteSpace=wrap;html=1;fontSize=14;fontColor=#FFFFFF;arcSize=0;" vertex="1" parent="1">
                    <mxGeometry x="40" y="1480" width="120" height="30" as="geometry"/>
                </mxCell>
                <mxCell id="19" value="User 2" style="rounded=1;whiteSpace=wrap;html=1;fontSize=14;fontColor=#FFFFFF;arcSize=0;" vertex="1" parent="1">
                    <mxGeometry x="180" y="1480" width="120" height="30" as="geometry"/>
                </mxCell>
                <mxCell id="20" value="User 3" style="rounded=1;whiteSpace=wrap;html=1;fontSize=14;fontColor=#FFFFFF;arcSize=0;" vertex="1" parent="1">
                    <mxGeometry x="330" y="1480" width="120" height="30" as="geometry"/>
                </mxCell>
                <mxCell id="21" value="User 4" style="rounded=1;whiteSpace=wrap;html=1;fontSize=14;fontColor=#FFFFFF;arcSize=0;" vertex="1" parent="1">
                    <mxGeometry x="490" y="1480" width="120" height="30" as="geometry"/>
                </mxCell>
                <mxCell id="25" value="Task" style="rounded=1;whiteSpace=wrap;html=1;fontSize=14;fontColor=#FFFFFF;" vertex="1" parent="1">
                    <mxGeometry x="650" y="1530" width="120" height="60" as="geometry"/>
                </mxCell>
                <mxCell id="26" value="Task" style="rounded=1;whiteSpace=wrap;html=1;fontSize=14;fontColor=#FFFFFF;" vertex="1" parent="1">
                    <mxGeometry x="180" y="1530" width="120" height="60" as="geometry"/>
                </mxCell>
                <mxCell id="27" value="Task" style="rounded=1;whiteSpace=wrap;html=1;fontSize=14;fontColor=#FFFFFF;" vertex="1" parent="1">
                    <mxGeometry x="330" y="1530" width="120" height="60" as="geometry"/>
                </mxCell>
                <mxCell id="28" value="Task" style="rounded=1;whiteSpace=wrap;html=1;fontSize=14;fontColor=#FFFFFF;" vertex="1" parent="1">
                    <mxGeometry x="490" y="1530" width="120" height="60" as="geometry"/>
                </mxCell>
                <mxCell id="29" value="user 1" style="rounded=1;whiteSpace=wrap;html=1;fontSize=14;fontColor=#FFFFFF;arcSize=0;" vertex="1" parent="1">
                    <mxGeometry x="650" y="1480" width="120" height="30" as="geometry"/>
                </mxCell>
                <mxCell id="31" value="+" style="rounded=1;whiteSpace=wrap;html=1;fontSize=14;fontColor=#FFFFFF;" vertex="1" parent="1">
                    <mxGeometry x="-10" y="1475" width="40" height="40" as="geometry"/>
                </mxCell>
                <mxCell id="35" value="" style="endArrow=classic;html=1;fontSize=14;fontColor=#FFFFFF;entryX=-0.008;entryY=0.433;entryDx=0;entryDy=0;entryPerimeter=0;exitX=1;exitY=0.25;exitDx=0;exitDy=0;" edge="1" parent="1" source="17" target="16">
                    <mxGeometry width="50" height="50" relative="1" as="geometry">
                        <mxPoint x="400" y="1190" as="sourcePoint"/>
                        <mxPoint x="450" y="1140" as="targetPoint"/>
                    </mxGeometry>
                </mxCell>
                <mxCell id="36" value="+" style="rounded=1;whiteSpace=wrap;html=1;fontSize=14;fontColor=#FFFFFF;" vertex="1" parent="1">
                    <mxGeometry x="530" y="1160" width="40" height="40" as="geometry"/>
                </mxCell>
                <mxCell id="37" value="Users" style="rounded=1;whiteSpace=wrap;html=1;fontSize=14;fontColor=#FFFFFF;" vertex="1" parent="1">
                    <mxGeometry x="330" y="1160" width="70" height="20" as="geometry"/>
                </mxCell>
                <mxCell id="38" value="Projects" style="rounded=1;whiteSpace=wrap;html=1;fontSize=14;fontColor=#FFFFFF;" vertex="1" parent="1">
                    <mxGeometry x="410" y="1160" width="80" height="20" as="geometry"/>
                </mxCell>
                <mxCell id="42" value="Invite User&lt;br&gt;email&lt;br&gt;email body" style="rounded=1;whiteSpace=wrap;html=1;fontSize=14;fontColor=#FFFFFF;" vertex="1" parent="1">
                    <mxGeometry x="640" y="1310" width="160" height="120" as="geometry"/>
                </mxCell>
                <mxCell id="43" value="" style="endArrow=classic;html=1;fontSize=14;fontColor=#FFFFFF;entryX=0;entryY=0.5;entryDx=0;entryDy=0;exitX=1;exitY=0.75;exitDx=0;exitDy=0;" edge="1" parent="1" source="17" target="42">
                    <mxGeometry width="50" height="50" relative="1" as="geometry">
                        <mxPoint x="400" y="1140" as="sourcePoint"/>
                        <mxPoint x="450" y="1090" as="targetPoint"/>
                    </mxGeometry>
                </mxCell>
            </root>
        </mxGraphModel>
    </diagram>
</mxfile>